<?xml version="1.0" standalone="no"?>
<!DOCTYPE svg PUBLIC "-//W3C//DTD SVG 20010904//EN"
 "http://www.w3.org/TR/2001/REC-SVG-20010904/DTD/svg10.dtd">
<svg version="1.0" xmlns="http://www.w3.org/2000/svg"
 width="874.000000pt" height="118.000000pt" viewBox="0 0 874.000000 118.000000"
 preserveAspectRatio="xMidYMid meet">
<metadata>
Created by potrace 1.16, written by Peter Selinger 2001-2019
</metadata>
<g transform="translate(0.000000,118.000000) scale(0.100000,-0.100000)"
fill="#000000" stroke="none">
<path d="M515 1169 c-41 -10 -91 -49 -100 -80 -3 -10 -32 -32 -63 -50 -89 -50
-192 -161 -241 -260 -53 -106 -70 -201 -71 -384 0 -129 -2 -141 -20 -153 -40
-25 -15 -61 58 -83 29 -8 42 -18 42 -30 0 -41 99 -84 255 -110 47 -8 159 -13
270 -13 211 0 345 18 451 60 37 15 99 28 165 34 136 14 272 37 334 57 81 26
109 63 63 84 -19 8 -24 19 -26 62 -4 83 -27 149 -64 184 -44 42 -76 53 -156
53 l-67 0 -17 82 c-27 131 -76 218 -177 318 -63 63 -105 94 -156 119 -38 19
-82 46 -97 61 -43 42 -114 60 -237 59 -58 -1 -124 -5 -146 -10z m315 -32 c24
-12 27 -15 10 -11 -44 10 -217 17 -255 10 -50 -10 -75 -37 -75 -85 0 -21 -3
-59 -6 -85 l-7 -46 -48 0 c-47 0 -49 1 -49 28 0 46 29 129 56 161 33 40 83 50
224 47 84 -2 125 -7 150 -19z m3 -28 c65 -16 87 -46 87 -118 0 -89 2 -88 -206
-95 -140 -4 -184 -3 -192 7 -12 15 0 183 14 197 30 30 197 35 297 9z m-453
-188 c0 -21 -5 -52 -11 -70 l-11 -31 -99 0 c-55 0 -99 4 -99 9 0 6 25 37 56
70 55 60 57 61 110 61 l54 0 0 -39z m767 7 c16 -18 42 -50 58 -70 l27 -38
-111 0 -111 0 0 70 0 70 53 0 c47 0 57 -4 84 -32z m-257 -64 c6 -14 10 -56 10
-93 l0 -68 -37 -7 c-21 -3 -50 -6 -64 -6 -15 0 -32 -7 -39 -15 -8 -10 -31 -15
-69 -15 -57 1 -209 24 -219 34 -3 4 5 17 17 30 18 19 24 40 28 91 l6 66 81 -3
81 -3 3 -43 c2 -24 -2 -49 -8 -57 -8 -9 -6 -22 7 -49 23 -49 54 -49 82 0 l22
37 -21 22 c-12 13 -20 35 -20 58 0 39 -6 37 108 45 16 1 25 -6 32 -24z m-662
-126 l3 -68 -71 0 c-38 0 -70 4 -70 9 0 5 12 37 27 71 l26 61 41 -3 41 -3 3
-67z m128 45 c1 -12 4 -28 7 -37 4 -9 4 -30 0 -46 -5 -29 -7 -30 -64 -30 l-59
0 0 70 0 71 58 -3 c50 -3 57 -5 58 -25z m794 -43 l0 -70 -96 0 -97 0 7 48 c6
43 13 83 15 90 1 1 39 2 86 2 l85 0 0 -70z m106 39 c8 -17 22 -49 29 -70 l14
-39 -69 0 -70 0 0 70 0 70 40 0 c34 0 42 -4 56 -31z m-599 -127 l122 -5 -2
-53 -2 -54 -100 0 c-86 0 -299 30 -313 45 -2 2 1 18 7 36 6 18 11 44 11 59 l0
28 78 -25 c58 -19 106 -27 199 -31z m236 -1 c4 -16 4 -51 1 -78 -4 -31 0 -63
10 -92 21 -57 21 -107 0 -115 -9 -3 -31 -6 -50 -6 l-34 0 0 51 c0 28 -5 60
-12 72 -6 12 -12 59 -13 104 -1 90 -2 88 66 92 22 1 28 -4 32 -28z m-533 -5
c0 -3 -4 -16 -10 -30 -9 -25 -10 -25 -51 -11 -108 38 -173 1 -118 -69 l20 -26
-71 0 -72 0 7 57 c11 89 0 83 156 83 76 0 139 -2 139 -4z m954 -33 c3 -21 6
-48 6 -60 0 -23 13 -21 -232 -39 l-78 -6 0 71 0 71 149 0 148 0 7 -37z m-369
-149 c20 -78 19 -130 -6 -184 -25 -55 -62 -95 -114 -123 -59 -32 -219 -32
-290 1 -63 29 -93 57 -116 107 -28 61 -24 107 19 197 l37 79 55 -8 c30 -4 99
-8 152 -8 l98 0 10 -29 c5 -16 10 -53 10 -81 0 -65 15 -80 71 -72 23 3 46 10
51 15 13 13 12 90 -2 126 -5 15 -10 37 -10 49 1 19 2 20 10 6 5 -9 16 -43 25
-75z m-717 -36 l3 -68 -86 0 -85 0 0 70 0 71 83 -3 82 -3 3 -67z m88 -115 c6
-31 18 -67 30 -97 7 -18 2 -19 -125 -13 -79 3 -138 10 -147 18 -9 7 -14 31
-14 65 l0 54 125 0 125 0 6 -27z"/>
<path d="M7540 903 c-30 -11 -50 -37 -50 -65 0 -41 32 -68 80 -68 27 0 47 7
60 20 56 56 -13 141 -90 113z"/>
<path d="M6972 588 l3 -283 68 -3 67 -3 0 121 c0 155 16 189 91 190 63 0 73
-21 77 -176 l4 -134 64 0 64 0 0 133 c0 183 -17 234 -92 273 -35 18 -135 18
-172 -1 -15 -8 -30 -15 -32 -15 -2 0 -4 41 -4 90 l0 90 -70 0 -70 0 2 -282z"/>
<path d="M5630 570 l0 -270 70 0 70 0 0 95 0 94 123 3 122 3 3 53 3 52 -125 0
-126 0 0 65 0 65 140 0 140 0 0 55 0 55 -210 0 -210 0 0 -270z"/>
<path d="M6146 700 c-26 -10 -50 -21 -53 -23 -3 -4 31 -82 41 -94 1 -2 20 6
41 17 52 26 119 26 145 0 37 -37 26 -50 -42 -50 -81 0 -132 -15 -169 -48 -60
-54 -43 -148 33 -189 45 -24 145 -24 181 0 23 15 27 15 27 2 0 -12 14 -15 66
-15 l66 0 -4 148 c-4 175 -17 212 -88 249 -56 30 -171 31 -244 3z"/>
<path d="M6625 701 c-53 -24 -76 -51 -82 -99 -11 -80 34 -121 159 -142 77 -14
104 -34 73 -56 -26 -19 -79 -17 -145 6 -30 10 -58 16 -62 12 -3 -4 -13 -24
-22 -45 l-16 -38 43 -19 c99 -44 253 -32 305 23 51 54 46 143 -10 177 -17 10
-60 24 -97 30 -36 7 -74 17 -83 22 -22 11 -23 34 -2 42 30 11 115 6 144 -9
l29 -15 20 46 c12 25 19 50 16 54 -9 14 -94 30 -162 30 -44 0 -82 -7 -108 -19z"/>
<path d="M7507 713 c-4 -3 -7 -98 -7 -210 l0 -203 65 0 65 0 0 210 0 210 -58
0 c-32 0 -62 -3 -65 -7z"/>
<path d="M7822 699 c-199 -101 -141 -375 85 -405 234 -31 355 257 164 391 -38
26 -52 30 -124 33 -68 2 -89 -1 -125 -19z m157 -94 c37 -18 55 -64 48 -118
-11 -84 -99 -116 -158 -58 -24 24 -29 38 -29 76 0 58 13 83 53 100 41 18 52
18 86 0z"/>
<path d="M8237 713 c-4 -3 -7 -98 -7 -210 l0 -203 65 0 65 0 0 103 c0 118 12
170 43 192 30 21 83 19 107 -5 18 -18 20 -33 20 -155 l0 -135 65 0 65 0 0 150
c0 170 -8 203 -61 241 -47 33 -148 38 -201 11 -37 -19 -38 -19 -38 -1 0 16 -8
19 -58 19 -32 0 -62 -3 -65 -7z"/>
</g>
</svg>
